<?xml version="1.0" standalone="no"?>
<!DOCTYPE svg PUBLIC "-//W3C//DTD SVG 20010904//EN"
 "http://www.w3.org/TR/2001/REC-SVG-20010904/DTD/svg10.dtd">
<svg version="1.0" xmlns="http://www.w3.org/2000/svg"
 width="512.000000pt" height="512.000000pt" viewBox="0 0 512.000000 512.000000"
 preserveAspectRatio="xMidYMid meet">
<metadata>
Created by potrace 1.11, written by Peter Selinger 2001-2013
</metadata>
<g transform="translate(0.000000,512.000000) scale(0.100000,-0.100000)"
fill="#000000" stroke="none">
<path d="M895 4420 c-16 -4 -47 -14 -67 -23 -100 -42 -188 -167 -188 -266 0
-11 -1 -21 -2 -21 -2 -1 -21 -3 -43 -6 -88 -13 -180 -74 -230 -154 -47 -74
-46 -63 -43 -1580 l3 -1435 26 -55 c33 -69 88 -124 159 -158 l55 -27 1873 -1
c1829 0 1874 0 1932 19 66 22 129 71 164 126 50 79 50 83 51 617 1 275 4 505
8 510 3 5 30 9 59 8 64 -2 108 15 131 49 15 24 17 63 17 372 0 429 1 425 -133
431 -39 2 -74 3 -77 4 -3 0 -5 224 -4 497 1 469 0 502 -19 560 -32 101 -109
175 -216 207 -29 8 -56 15 -59 15 -21 -3 -27 4 -28 30 -5 104 -100 228 -204
266 -54 20 -83 20 -1595 20 -847 1 -1553 -2 -1570 -5z"/>
</g>
</svg>
